<svg xmlns="http://www.w3.org/2000/svg" xmlns:xlink="http://www.w3.org/1999/xlink" xmlns:lucid="lucid" width="2041" height="1767.27"><g transform="translate(1600.0000000000002 -7.105427357601002e-15)" lucid:page-tab-id="0_0"><path d="M-1580 359.82c0-3.32 2.7-6 6-6h318c3.3 0 6 2.68 6 6v53.45c0 3.32-2.7 6-6 6h-318c-3.3 0-6-2.68-6-6z" fill="none"/><use xlink:href="#a" transform="matrix(1,0,0,1,-1580.0000000000002,353.81818181818187) translate(54.820987654321 17.77777777777778)"/><use xlink:href="#b" transform="matrix(1,0,0,1,-1580.0000000000002,353.81818181818187) translate(79.51234567901236 17.77777777777778)"/><use xlink:href="#c" transform="matrix(1,0,0,1,-1580.0000000000002,353.81818181818187) translate(184.82098765432096 17.77777777777778)"/><use xlink:href="#d" transform="matrix(1,0,0,1,-1580.0000000000002,353.81818181818187) translate(266.48765432098764 17.77777777777778)"/><use xlink:href="#e" transform="matrix(1,0,0,1,-1580.0000000000002,353.81818181818187) translate(16.456790123456784 44.44444444444444)"/><use xlink:href="#f" transform="matrix(1,0,0,1,-1580.0000000000002,353.81818181818187) translate(132.5679012345679 44.44444444444444)"/><use xlink:href="#g" transform="matrix(1,0,0,1,-1580.0000000000002,353.81818181818187) translate(150.53086419753086 44.44444444444444)"/><use xlink:href="#h" transform="matrix(1,0,0,1,-1580.0000000000002,353.81818181818187) translate(128.49382716049382 71.11111111111111)"/><path d="M-1004.78 20c17.3 0 31.3 19.54 31.3 43.64s-14 43.63-31.3 43.63h-93.92c-17.28 0-31.3-19.53-31.3-43.63S-1115.98 20-1098.7 20z" stroke="#5e5e5e" stroke-width="3" fill="#fff"/><use xlink:href="#i" transform="matrix(1,0,0,1,-1125,25.000000000000007) translate(45.135802469135804 44.59027777777778)"/><path d="M-1130 178.73c0-3.32 2.7-6 6-6h144.52c3.32 0 6 2.68 6 6v31.63c0 3.32-2.68 6-6 6H-1124c-3.3 0-6-2.68-6-6z" stroke="#5e5e5e" stroke-width="3" fill="#fff"/><use xlink:href="#j" transform="matrix(1,0,0,1,-1118,184.72727272727272) translate(45.23456790123457 17.77777777777778)"/><use xlink:href="#k" transform="matrix(1,0,0,1,-1118,184.72727272727272) translate(56.28395061728395 17.77777777777778)"/><use xlink:href="#l" transform="matrix(1,0,0,1,-1118,184.72727272727272) translate(75.41975308641975 17.77777777777778)"/><path d="M-1051.74 109.77v42.96" stroke="#5e5e5e" stroke-width="2" fill="none"/><path d="M-1050.74 109.8h-2v-1.03h2z" fill="#5e5e5e"/><path d="M-1051.74 168l-4.63-14.27h9.27z" stroke="#5e5e5e" stroke-width="2" fill="#5e5e5e"/><path d="M-1057.18 326.35c3-1.4 7.88-1.4 10.88 0l106.5 49.5c3.02 1.38 3.02 3.65 0 5.04l-106.5 49.48c-3 1.4-7.88 1.4-10.88 0l-106.5-49.5c-3-1.38-3-3.65 0-5.04z" stroke="#5e5e5e" stroke-width="3" fill="#fff"/><use xlink:href="#j" transform="matrix(1,0,0,1,-1164.1304347826085,328.81818181818187) translate(91.85685185185186 55.27777777777778)"/><use xlink:href="#m" transform="matrix(1,0,0,1,-1164.1304347826085,328.81818181818187) translate(102.90623456790124 55.27777777777778)"/><use xlink:href="#n" transform="matrix(1,0,0,1,-1164.1304347826085,328.81818181818187) translate(122.04203703703703 55.27777777777778)"/><path d="M-1051.74 218.86v86.56" stroke="#5e5e5e" stroke-width="2" fill="none"/><path d="M-1050.74 218.9h-2v-1.04h2z" fill="#5e5e5e"/><path d="M-1051.74 320.68l-4.63-14.26h9.27z" stroke="#5e5e5e" stroke-width="2" fill="#5e5e5e"/><path d="M-836.52 362.55c0-3.32 2.68-6 6-6H-686c3.3 0 6 2.68 6 6v31.63c0 3.32-2.7 6-6 6h-144.52c-3.32 0-6-2.68-6-6z" stroke="#5e5e5e" stroke-width="3" fill="#fff"/><use xlink:href="#o" transform="matrix(1,0,0,1,-824.5217391304348,368.54545454545456) translate(24.89506172839507 17.77777777777778)"/><path d="M-836.52 266c0-3.3 2.68-6 6-6H-686c3.3 0 6 2.7 6 6v31.64c0 3.3-2.7 6-6 6h-144.52c-3.32 0-6-2.7-6-6z" stroke="#5e5e5e" stroke-width="3" fill="#fff"/><use xlink:href="#p" transform="matrix(1,0,0,1,-824.5217391304348,272) translate(39.401234567901234 17.77777777777778)"/><path d="M-1057.18 633.44c3-1.4 7.88-1.4 10.88 0l106.5 49.5c3.02 1.38 3.02 3.65 0 5.04l-106.5 49.5c-3 1.4-7.88 1.4-10.88 0l-106.5-49.5c-3-1.4-3-3.66 0-5.05z" stroke="#5e5e5e" stroke-width="3" fill="#fff"/><use xlink:href="#j" transform="matrix(1,0,0,1,-1164.1304347826085,635.909090909091) translate(89.41858024691358 55.27777777777778)"/><use xlink:href="#m" transform="matrix(1,0,0,1,-1164.1304347826085,635.909090909091) translate(100.46796296296296 55.27777777777778)"/><use xlink:href="#q" transform="matrix(1,0,0,1,-1164.1304347826085,635.909090909091) translate(119.60376543209875 55.27777777777778)"/><path d="M-836.52 669.64c0-3.32 2.68-6 6-6H-686c3.3 0 6 2.68 6 6v31.63c0 3.32-2.7 6-6 6h-144.52c-3.32 0-6-2.68-6-6z" stroke="#5e5e5e" stroke-width="3" fill="#fff"/><use xlink:href="#r" transform="matrix(1,0,0,1,-824.5217391304348,675.6363636363637) translate(15.666666666666671 17.77777777777778)"/><path d="M-836.52 571.45c0-3.3 2.68-6 6-6H-686c3.3 0 6 2.7 6 6v31.64c0 3.3-2.7 6-6 6h-144.52c-3.32 0-6-2.7-6-6z" stroke="#5e5e5e" stroke-width="3" fill="#fff"/><use xlink:href="#p" transform="matrix(1,0,0,1,-824.5217391304348,577.4545454545455) translate(39.401234567901234 17.77777777777778)"/><path d="M-1130 790.45c0-3.3 2.7-6 6-6h144.52c3.32 0 6 2.7 6 6v31.64c0 3.3-2.68 6-6 6H-1124c-3.3 0-6-2.7-6-6z" stroke="#5e5e5e" stroke-width="3" fill="#fff"/><use xlink:href="#s" transform="matrix(1,0,0,1,-1118,796.4545454545455) translate(51.407407407407405 17.77777777777778)"/><path d="M-1057.2 962.32c3.02-1.38 7.9-1.38 10.92 0l106.48 48.73c3 1.38 3 3.6 0 5l-106.48 48.73c-3.02 1.37-7.9 1.37-10.9 0l-106.5-48.74c-3-1.38-3-3.6 0-5z" stroke="#5e5e5e" stroke-width="3" fill="#fff"/><use xlink:href="#j" transform="matrix(1,0,0,1,-1164.1304347826085,964.818181818182) translate(91.85685185185186 54.52777777777778)"/><use xlink:href="#m" transform="matrix(1,0,0,1,-1164.1304347826085,964.818181818182) translate(102.90623456790124 54.52777777777778)"/><use xlink:href="#n" transform="matrix(1,0,0,1,-1164.1304347826085,964.818181818182) translate(122.04203703703703 54.52777777777778)"/><path d="M-836.52 998.55c0-3.32 2.68-6 6-6H-686c3.3 0 6 2.68 6 6v31.63c0 3.32-2.7 6-6 6h-144.52c-3.32 0-6-2.68-6-6z" stroke="#5e5e5e" stroke-width="3" fill="#fff"/><use xlink:href="#t" transform="matrix(1,0,0,1,-824.5217391304348,1004.5454545454545) translate(1.1913580246913682 17.77777777777778)"/><path d="M-836.52 876.9c0-3.3 2.68-6 6-6H-686c3.3 0 6 2.7 6 6v31.65c0 3.3-2.7 6-6 6h-144.52c-3.32 0-6-2.7-6-6z" stroke="#5e5e5e" stroke-width="3" fill="#fff"/><use xlink:href="#p" transform="matrix(1,0,0,1,-824.5217391304348,882.909090909091) translate(39.401234567901234 17.77777777777778)"/><path d="M-897.7 379.36h-37.54v-2h37.54zm41.18 0h-20.04v-2h20.04z" fill="#5e5e5e"/><path d="M-935.22 379.36h-1.33l.62-2h.7zM-841.26 378.36l-14.26 4.64v-9.27z" fill="#5e5e5e"/><path d="M-838.02 378.36l-18.5 6.02v-12.03zm-16.5 3.26l10.03-3.26-10.02-3.26z" fill="#5e5e5e"/><use xlink:href="#u" transform="matrix(1,0,0,1,-897.6991737647671,367.6969696969697) translate(0 14.222222222222223)"/><path d="M-758.26 354.05v-30.4" stroke="#5e5e5e" stroke-width="2" fill="none"/><path d="M-757.26 355.05h-2v-1.03h2z" fill="#5e5e5e"/><path d="M-758.26 308.37l4.63 14.27h-9.27z" stroke="#5e5e5e" stroke-width="2" fill="#5e5e5e"/><path d="M-839.02 281.82h-194.22" stroke="#5e5e5e" stroke-width="2" fill="none"/><path d="M-838.02 282.82h-1.03v-2h1.03z" fill="#5e5e5e"/><path d="M-1048.5 281.82l14.26-4.63v9.26z" stroke="#5e5e5e" stroke-width="2" fill="#5e5e5e"/><path d="M-839.02 587.27h-194.22" stroke="#5e5e5e" stroke-width="2" fill="none"/><path d="M-838.02 588.27h-1.03v-2h1.03z" fill="#5e5e5e"/><path d="M-1048.5 587.27l14.26-4.63v9.27z" stroke="#5e5e5e" stroke-width="2" fill="#5e5e5e"/><path d="M-758.26 661.14V617.4" stroke="#5e5e5e" stroke-width="2" fill="none"/><path d="M-757.26 662.14h-2v-1.03h2z" fill="#5e5e5e"/><path d="M-758.26 602.15l4.63 14.26h-9.27z" stroke="#5e5e5e" stroke-width="2" fill="#5e5e5e"/><path d="M-897.7 686.45h-37.54v-2h37.54zm41.18 0h-20.04v-2h20.04z" fill="#5e5e5e"/><path d="M-935.22 686.45h-1.33l.62-2h.7zM-841.26 685.45l-14.26 4.64v-9.28z" fill="#5e5e5e"/><path d="M-838.02 685.45l-18.5 6.02v-12.03zm-16.5 3.26l10.03-3.25-10.02-3.25z" fill="#5e5e5e"/><use xlink:href="#u" transform="matrix(1,0,0,1,-897.6991737647671,674.7878787878789) translate(0 14.222222222222223)"/><path d="M-856.52 1013.36v2h-20.04v-2zm-78.7 1.2v-2h37.53v2z" fill="#5e5e5e"/><path d="M-935.2 1014.55h-1.38l.7-2h.67zM-841.26 1014.36l-14.26 4.64v-9.27z" fill="#5e5e5e"/><path d="M-838.02 1014.36l-18.5 6.02v-12.03zm-16.5 3.26l10.03-3.26-10.02-3.26z" fill="#5e5e5e"/><use xlink:href="#u" transform="matrix(1,0,0,1,-897.6947658518063,1003.2878787878789) translate(0 14.222222222222223)"/><path d="M-758.26 990.05v-55.5" stroke="#5e5e5e" stroke-width="2" fill="none"/><path d="M-757.26 991.05h-2v-1.03h2z" fill="#5e5e5e"/><path d="M-758.26 919.28l4.63 14.27h-9.27z" stroke="#5e5e5e" stroke-width="2" fill="#5e5e5e"/><path d="M-1004.78 1132.73c17.3 0 31.3 19.53 31.3 43.63s-14 43.64-31.3 43.64h-93.92c-17.28 0-31.3-19.54-31.3-43.64s14.02-43.63 31.3-43.63z" stroke="#5e5e5e" stroke-width="3" fill="#fff"/><use xlink:href="#v" transform="matrix(1,0,0,1,-1125,1137.7272727272725) translate(53.74691358024691 44.59027777777778)"/><path d="M-1050.74 1112.73h-2v-2.86h2zm0-24.2h-2v-20.35h2z" fill="#5e5e5e"/><path d="M-1050.74 1068.2h-2v-.98l2-.07zM-1051.74 1128l-4.63-14.27h9.27z" fill="#5e5e5e"/><path d="M-1051.74 1131.23l-6-18.5h12zm-3.26-16.5l3.26 10.03 3.26-10.03z" fill="#5e5e5e"/><use xlink:href="#w" transform="matrix(1,0,0,1,-1066.257648953301,1088.5388698188087) translate(0 14.222222222222223)"/><path d="M-1266.96 484.18c0-3.3 2.7-6 6-6h144.53c3.3 0 6 2.7 6 6v31.64c0 3.3-2.7 6-6 6h-144.53c-3.3 0-6-2.7-6-6z" stroke="#5e5e5e" stroke-width="3" fill="#fff"/><use xlink:href="#x" transform="matrix(1,0,0,1,-1254.9565217391305,490.1818181818182) translate(52.02469135802469 17.77777777777778)"/><path d="M-1050.74 612.5h-2V542.6h2zm0-91.26h-2V433.8h2z" fill="#5e5e5e"/><path d="M-1050.74 433.83h-2v-.98l2-.08zM-1051.74 627.77l-4.63-14.26h9.27z" fill="#5e5e5e"/><path d="M-1051.74 631l-6-18.5h12zm-3.26-16.5l3.26 10.04 3.26-10.03z" fill="#5e5e5e"/><use xlink:href="#w" transform="matrix(1,0,0,1,-1066.257648953301,521.2424242030014) translate(0 14.222222222222223)"/><path d="M-839.02 892.73h-194.22" stroke="#5e5e5e" stroke-width="2" fill="none"/><path d="M-838.02 893.73h-1.03v-2h1.03z" fill="#5e5e5e"/><path d="M-1048.5 892.73l14.26-4.64v9.26z" stroke="#5e5e5e" stroke-width="2" fill="#5e5e5e"/><path d="M-1050.74 750.76h-2v-9.86h2z" fill="#5e5e5e"/><path d="M-1050.74 740.92h-2v-.98l2-.08zM-1051.74 779.72l-2.48-7.63h4.96z" fill="#5e5e5e"/><path d="M-1051.74 782.95l-3.53-10.86h2.1l1.43 4.38 1.43-4.4h2.1z" fill="#5e5e5e"/><use xlink:href="#w" transform="matrix(1,0,0,1,-1066.257648953301,750.7599230806934) translate(0 14.222222222222223)"/><path d="M-1051.74 830.6v110.8" stroke="#5e5e5e" stroke-width="2" fill="none"/><path d="M-1050.74 830.62h-2v-1.03h2z" fill="#5e5e5e"/><path d="M-1051.74 956.67l-4.63-14.26h9.27z" stroke="#5e5e5e" stroke-width="2" fill="#5e5e5e"/><path d="M-39.3 20C-17.6 20 0 39.54 0 63.64s-17.6 43.63-39.3 43.63h-117.92c-21.7 0-39.3-19.53-39.3-43.63S-178.92 20-157.22 20z" stroke="#5e5e5e" stroke-width="3" fill="#fff"/><use xlink:href="#y" transform="matrix(1,0,0,1,-191.5217391304348,25.000000000000007) translate(63.40740740740741 44.59027777777778)"/><path d="M-186.52 178.73c0-3.32 2.68-6 6-6H-16c3.3 0 6 2.68 6 6V254c0 3.3-2.7 6-6 6h-164.52c-3.32 0-6-2.7-6-6z" stroke="#5e5e5e" stroke-width="3" fill="#fff"/><use xlink:href="#z" transform="matrix(1,0,0,1,-174.52173912707025,184.72727272727272) translate(0 17.77777777777778)"/><use xlink:href="#A" transform="matrix(1,0,0,1,-174.52173912707025,184.72727272727272) translate(100.55555555555554 17.77777777777778)"/><use xlink:href="#B" transform="matrix(1,0,0,1,-174.52173912707025,184.72727272727272) translate(0 42.31114666666667)"/><use xlink:href="#C" transform="matrix(1,0,0,1,-174.52173912707025,184.72727272727272) translate(0 65.77786666666667)"/><path d="M-98.26 109.77v42.95" stroke="#5e5e5e" stroke-width="2" fill="none"/><path d="M-97.26 109.8h-2v-1.03h2z" fill="#5e5e5e"/><path d="M-98.26 168l-4.64-14.28h9.27z" stroke="#5e5e5e" stroke-width="2" fill="#5e5e5e"/><path d="M-144.36 308.45c1.98-2.66 6.26-4.8 9.58-4.8h73.04c3.3 0 7.6 2.14 9.58 4.8l21.2 28.55c1.97 2.66 1.97 6.98 0 9.64l-21.2 28.54c-1.98 2.66-6.27 4.82-9.58 4.82h-73.04c-3.32 0-7.6-2.16-9.58-4.82l-21.2-28.54c-1.97-2.66-1.97-6.98 0-9.64z" stroke="#5e5e5e" stroke-width="3" fill="#fff"/><use xlink:href="#D" transform="matrix(1,0,0,1,-164.13043478062627,308.6363636363636) translate(17.69635802469135 24.05902777777778)"/><use xlink:href="#E" transform="matrix(1,0,0,1,-164.13043478062627,308.6363636363636) translate(61.770432098765426 24.05902777777778)"/><use xlink:href="#F" transform="matrix(1,0,0,1,-164.13043478062627,308.6363636363636) translate(72.8198148148148 24.05902777777778)"/><use xlink:href="#G" transform="matrix(1,0,0,1,-164.13043478062627,308.6363636363636) translate(100.96796296296296 24.05902777777778)"/><use xlink:href="#H" transform="matrix(1,0,0,1,-164.13043478062627,308.6363636363636) translate(31.745740740740736 50.72569444444445)"/><use xlink:href="#I" transform="matrix(1,0,0,1,-164.13043478062627,308.6363636363636) translate(63.22722222222222 50.72569444444445)"/><path d="M-98.26 262.5v21.12" stroke="#5e5e5e" stroke-width="2" fill="none"/><path d="M-97.26 262.53h-2v-1.03h2z" fill="#5e5e5e"/><path d="M-98.26 298.9l-4.64-14.27h9.27z" stroke="#5e5e5e" stroke-width="2" fill="#5e5e5e"/><path d="M-209.13 422.36c0-3.3 2.7-6 6-6H6.6c3.32 0 6 2.7 6 6v49.82c0 3.32-2.68 6-6 6h-209.73c-3.3 0-6-2.68-6-6z" stroke="#5e5e5e" stroke-width="3" fill="#fff"/><use xlink:href="#J" transform="matrix(1,0,0,1,-197.13043484651138,428.36363636363643) translate(3.7839506172839634 22.52777777777778)"/><path d="M-98.26 382.5v13.86" stroke="#5e5e5e" stroke-width="2" fill="none"/><path d="M-97.26 382.53h-2v-1.03h2z" fill="#5e5e5e"/><path d="M-98.26 411.63l-4.64-14.27h9.27z" stroke="#5e5e5e" stroke-width="2" fill="#5e5e5e"/><path d="M-211.63 447.27h-33c-3.3 0-6-2.68-6-6v-93.45c0-3.32 2.7-6 6-6h57.65" stroke="#5e5e5e" stroke-width="2" fill="none"/><path d="M-210.63 448.27h-1.03v-2h1.03z" fill="#5e5e5e"/><path d="M-171.7 341.82l-14.28 4.63v-9.27z" stroke="#5e5e5e" stroke-width="2" fill="#5e5e5e"/><path d="M-104.3 743.02c2.85-1.67 7.5-1.67 10.35 0l170.5 99.4c2.87 1.68 2.87 4.4 0 6.06l-170.5 99.4c-2.86 1.68-7.5 1.68-10.36 0l-170.52-99.4c-2.86-1.67-2.86-4.38 0-6.05z" stroke="#5e5e5e" stroke-width="3" fill="#fff"/><use xlink:href="#K" transform="matrix(1,0,0,1,-275,745) translate(42.92092537037036 93.15277777777777)"/><use xlink:href="#L" transform="matrix(1,0,0,1,-275,745) translate(139.15549327160494 93.15277777777777)"/><use xlink:href="#M" transform="matrix(1,0,0,1,-275,745) translate(174.95796240740742 93.15277777777777)"/><use xlink:href="#N" transform="matrix(1,0,0,1,-275,745) translate(215.15558462962966 93.15277777777777)"/><use xlink:href="#O" transform="matrix(1,0,0,1,-275,745) translate(231.9951290740741 93.15277777777777)"/><use xlink:href="#P" transform="matrix(1,0,0,1,-275,745) translate(297.60759314814817 93.15277777777777)"/><use xlink:href="#Q" transform="matrix(1,0,0,1,-275,745) translate(51.7480858641975 119.81944444444446)"/><use xlink:href="#L" transform="matrix(1,0,0,1,-275,745) translate(147.98265376543208 119.81944444444446)"/><use xlink:href="#M" transform="matrix(1,0,0,1,-275,745) translate(183.78512290123456 119.81944444444446)"/><use xlink:href="#R" transform="matrix(1,0,0,1,-275,745) translate(223.9827451234568 119.81944444444446)"/><use xlink:href="#S" transform="matrix(1,0,0,1,-275,745) translate(240.82228956790124 119.81944444444446)"/><path d="M220 814.27c0-3.3 2.7-6 6-6h148c3.3 0 6 2.7 6 6v40.55c0 3.3-2.7 6-6 6H226c-3.3 0-6-2.7-6-6z" stroke="#5e5e5e" stroke-width="3" fill="#fff"/><use xlink:href="#T" transform="matrix(1,0,0,1,232,820.2727272727273) translate(27.856698888888886 19.26948)"/><path d="M-182.88 569.8c2.3-2.4 6.83-4.35 10.14-4.35h148.96c3.3 0 7.85 1.95 10.13 4.35l45.38 47.67c2.3 2.4 2.3 6.3 0 8.7l-45.38 47.67c-2.28 2.4-6.82 4.34-10.13 4.34h-148.96c-3.3 0-7.85-1.94-10.14-4.34l-45.37-47.68c-2.3-2.4-2.3-6.3 0-8.7z" stroke="#5e5e5e" stroke-width="3" fill="#fff"/><use xlink:href="#U" transform="matrix(1,0,0,1,-227.3913043441614,570.4545454545455) translate(26.82609616126542 56.40277777777778)"/><path d="M-27.05 341.82H54c3.3 0 6 2.68 6 6V514c0 3.3-2.7 6-6 6H-92.26c-3.3 0-6 2.7-6 6v19.45" stroke="#5e5e5e" stroke-width="2" fill="none"/><path d="M-27.02 342.82h-1.05l.04-2h1z" fill="#5e5e5e"/><path d="M-98.26 560.72l-4.64-14.27h9.27z" stroke="#5e5e5e" stroke-width="2" fill="#5e5e5e"/><path d="M-98.26 680.68v41.2" stroke="#5e5e5e" stroke-width="2" fill="none"/><path d="M-97.26 680.7h-2v-1.02h2z" fill="#5e5e5e"/><path d="M-98.26 737.14l-4.64-14.27h9.27z" stroke="#5e5e5e" stroke-width="2" fill="#5e5e5e"/><path d="M295.2 903.6c2.65-2 6.95-2 9.6 0l70.4 52.8c2.65 2 2.65 5.2 0 7.2l-70.4 52.8c-2.65 2-6.95 2-9.6 0l-70.4-52.8c-2.65-2-2.65-5.2 0-7.2z" stroke="#5e5e5e" stroke-width="3" fill="#fff"/><use xlink:href="#V" transform="matrix(1,0,0,1,225,905) translate(30.244404444444427 60.33198)"/><use xlink:href="#N" transform="matrix(1,0,0,1,225,905) translate(93.14825111111111 60.33198)"/><use xlink:href="#W" transform="matrix(1,0,0,1,225,905) translate(109.98779555555558 60.33198)"/><path d="M239.13 1086c0-3.3 2.7-6 6-6h109.74c3.3 0 6 2.7 6 6v28c0 3.3-2.7 6-6 6H245.13c-3.3 0-6-2.7-6-6z" stroke="#5e5e5e" stroke-width="3" fill="#fff"/><use xlink:href="#X" transform="matrix(1,0,0,1,251.13043478067266,1092) translate(4.239404444444432 15.644480000000001)"/><use xlink:href="#Y" transform="matrix(1,0,0,1,251.13043478067266,1092) translate(19.449315555555543 15.644480000000001)"/><use xlink:href="#Z" transform="matrix(1,0,0,1,251.13043478067266,1092) translate(36.28885999999999 15.644480000000001)"/><path d="M301 1060h-2v-.42h2zm0-21.75h-2v-17.92h2z" fill="#5e5e5e"/><path d="M301 1019.35v1h-2v-1.04zM300 1075.26l-4.64-14.26h9.28z" fill="#5e5e5e"/><path d="M300 1078.5l-6-18.5h12zm-3.26-16.5l3.26 10.03 3.26-10.03z" fill="#5e5e5e"/><use xlink:href="#u" transform="matrix(1,0,0,1,289.4320987654321,1038.2480493152057) translate(0 14.222222222222223)"/><path d="M200 1206c0-3.3 2.67-6 6-6h188c3.33 0 6 2.7 6 6v48c0 3.3-2.67 6-6 6H206c-3.33 0-6-2.7-6-6z" stroke="#5e5e5e" stroke-width="3" fill="#fff"/><g><use xlink:href="#aa" transform="matrix(1,0,0,1,211.98638669011825,1212) translate(13.862793333333315 22.39448)"/><use xlink:href="#Y" transform="matrix(1,0,0,1,211.98638669011825,1212) translate(135.43344000000002 22.39448)"/><use xlink:href="#ab" transform="matrix(1,0,0,1,211.98638669011825,1212) translate(152.27298444444446 22.39448)"/></g><path d="M-178.26 1086c0-3.3 2.7-6 6-6h148c3.3 0 6 2.7 6 6v108c0 3.3-2.7 6-6 6h-148c-3.3 0-6-2.7-6-6z" stroke="#5e5e5e" stroke-width="3" fill="#fff"/><g><use xlink:href="#ac" transform="matrix(1,0,0,1,-166.26086956129893,1092) translate(28.12830444444444 51.64448)"/></g><path d="M138.67 846.45h-57.7v-2h57.7zm61.33 0h-40.2v-2H200z" fill="#5e5e5e"/><path d="M81 846.45h-1.02l-.02-2H81zM215.26 845.45L201 850.1v-9.28z" fill="#5e5e5e"/><path d="M218.5 845.45l-18.5 6.02v-12.03zM202 848.7l10.03-3.25L202 842.2z" fill="#5e5e5e"/><g><use xlink:href="#u" transform="matrix(1,0,0,1,138.6660520092795,834.7878788009297) translate(0 14.222222222222223)"/></g><path d="M-97.26 1060h-2v-34.76h2zm-.87-56.1h-2v-52.26h2z" fill="#5e5e5e"/><path d="M-99.07 950.65l.94-.12v1.14h-2v-1.15zM-98.26 1075.26l-4.64-14.26h9.27z" fill="#5e5e5e"/><path d="M-98.26 1078.5l-6-18.5h12zm-3.26-16.5l3.26 10.03L-95 1062z" fill="#5e5e5e"/><g><use xlink:href="#w" transform="matrix(1,0,0,1,-113.21417076516134,1003.905021476794) translate(0 14.222222222222223)"/></g><path d="M300 863.32v18.85" stroke="#5e5e5e" stroke-width="2" fill="none"/><path d="M301 863.34h-2v-1.02h2z" fill="#5e5e5e"/><path d="M300 897.43l-4.64-14.26h9.28z" stroke="#5e5e5e" stroke-width="2" fill="#5e5e5e"/><path d="M427.55 621.74l2.53 2.53.92 3.42v786.43l-.92 3.42-2.53 2.53-3.42.92H-92.4l-3.4-.92-2.54-2.53-.92-3.42V1202.5h2v211.37l.7 2.64 1.8 1.8 2.63.7h516l2.64-.7 1.8-1.8.7-2.63V627.95l-.7-2.64-1.8-1.77-2.63-.7H53.4v-2h370.73z" fill="#5e5e5e"/><path d="M-97.26 1202.53h-2v-1.03h2zM52.4 626.45l-14.26-4.63 14.27-4.64z" fill="#5e5e5e"/><path d="M53.4 627.83l-18.5-6 18.5-6.02zm-12.02-6l10.03 3.25v-6.52z" fill="#5e5e5e"/><path d="M300 1122.5v57.5" stroke="#5e5e5e" stroke-width="2" fill="none"/><path d="M301 1122.53h-2v-1.03h2z" fill="#5e5e5e"/><path d="M300 1195.26l-4.64-14.26h9.28z" stroke="#5e5e5e" stroke-width="2" fill="#5e5e5e"/><path d="M300 1262.5v139" stroke="#5e5e5e" stroke-width="2" fill="none"/><path d="M301 1262.53h-2v-1.03h2z" fill="#5e5e5e"/><path d="M300 1416.76l-4.64-14.26h9.28z" stroke="#5e5e5e" stroke-width="2" fill="#5e5e5e"/><path d="M-261.06 1487.62c.85-3.2 4.23-5.8 7.55-5.8H114c3.3 0 5.3 2.6 4.45 5.8l-28.9 108.4c-.86 3.2-4.24 5.8-7.55 5.8h-367.5c-3.33 0-5.32-2.6-4.47-5.8z" stroke="#5e5e5e" stroke-width="3" fill="#fff"/><g><use xlink:href="#ad" transform="matrix(1,0,0,1,-286.51493253580037,1486.8181818181818) translate(22.97754376543208 59.02777777777778)"/><use xlink:href="#ae" transform="matrix(1,0,0,1,-286.51493253580037,1486.8181818181818) translate(102.42198820987652 59.02777777777778)"/><use xlink:href="#af" transform="matrix(1,0,0,1,-286.51493253580037,1486.8181818181818) translate(118.78001290123454 59.02777777777778)"/><use xlink:href="#ag" transform="matrix(1,0,0,1,-286.51493253580037,1486.8181818181818) translate(142.68130179012343 59.02777777777778)"/><use xlink:href="#ah" transform="matrix(1,0,0,1,-286.51493253580037,1486.8181818181818) translate(264.2519484567901 59.02777777777778)"/><use xlink:href="#ai" transform="matrix(1,0,0,1,-286.51493253580037,1486.8181818181818) translate(276.14827179012343 59.02777777777778)"/><use xlink:href="#aj" transform="matrix(1,0,0,1,-286.51493253580037,1486.8181818181818) translate(291.35818290123456 59.02777777777778)"/><use xlink:href="#ak" transform="matrix(1,0,0,1,-286.51493253580037,1486.8181818181818) translate(302.2224051234568 59.02777777777778)"/><use xlink:href="#al" transform="matrix(1,0,0,1,-286.51493253580037,1486.8181818181818) translate(334.4891451234568 59.02777777777778)"/><use xlink:href="#ai" transform="matrix(1,0,0,1,-286.51493253580037,1486.8181818181818) translate(358.3904340123457 59.02777777777778)"/><use xlink:href="#am" transform="matrix(1,0,0,1,-286.51493253580037,1486.8181818181818) translate(373.6003451234568 59.02777777777778)"/></g><path d="M-38.8 1660c17.3 0 31.3 19.54 31.3 43.64s-14 43.63-31.3 43.63h-93.9c-17.3 0-31.32-19.53-31.32-43.63S-150 1660-132.72 1660z" stroke="#5e5e5e" stroke-width="3" fill="#fff"/><g><use xlink:href="#an" transform="matrix(1,0,0,1,-159.0183358331176,1665) translate(42.23456790123457 44.59027777777778)"/></g><path d="M-85.76 1604.32V1640" stroke="#5e5e5e" stroke-width="2" fill="none"/><path d="M-84.76 1604.34h-2v-1.02h2z" fill="#5e5e5e"/><path d="M-85.76 1655.26L-90.4 1641h9.28z" stroke="#5e5e5e" stroke-width="2" fill="#5e5e5e"/><path d="M-232.42 621.82h-78.65c-3.3 0-6 2.68-6 6v908c0 3.3 2.7 6 6 6h15.5" stroke="#5e5e5e" stroke-width="2" fill="none"/><path d="M-231.48 622.28l.13.54h-1.1v-2h1.14z" fill="#5e5e5e"/><path d="M-280.3 1541.82l-14.27 4.63v-9.27z" stroke="#5e5e5e" stroke-width="2" fill="#5e5e5e"/><defs><path fill="#333" d="M27 0v-27h64v-190l-56 39v-29l58-41h29v221h61V0H27" id="ao"/><path fill="#333" d="M33 0v-38h34V0H33" id="ap"/><g id="a"><use transform="matrix(0.06172839506172839,0,0,0.06172839506172839,0,0)" xlink:href="#ao"/><use transform="matrix(0.06172839506172839,0,0,0.06172839506172839,12.345679012345679,0)" xlink:href="#ap"/></g><path fill="#333" d="M96-169c-40 0-48 33-48 73s9 75 48 75c24 0 41-14 43-38l32 2c-6 37-31 61-74 61-59 0-76-41-82-99-10-93 101-131 147-64 4 7 5 14 7 22l-32 3c-4-21-16-35-41-35" id="aq"/><path fill="#333" d="M100-194c62-1 85 37 85 99 1 63-27 99-86 99S16-35 15-95c0-66 28-99 85-99zM99-20c44 1 53-31 53-75 0-43-8-75-51-75s-53 32-53 75 10 74 51 75" id="ar"/><path fill="#333" d="M141 0L90-78 38 0H4l68-98-65-92h35l48 74 47-74h35l-64 92 68 98h-35" id="as"/><path fill="#333" d="M115-194c55 1 70 41 70 98S169 2 115 4C84 4 66-9 55-30l1 105H24l-1-265h31l2 30c10-21 28-34 59-34zm-8 174c40 0 45-34 45-75s-6-73-45-74c-42 0-51 32-51 76 0 43 10 73 51 73" id="at"/><path fill="#333" d="M141-36C126-15 110 5 73 4 37 3 15-17 15-53c-1-64 63-63 125-63 3-35-9-54-41-54-24 1-41 7-42 31l-33-3c5-37 33-52 76-52 45 0 72 20 72 64v82c-1 20 7 32 28 27v20c-31 9-61-2-59-35zM48-53c0 20 12 33 32 33 41-3 63-29 60-74-43 2-92-5-92 41" id="au"/><path fill="#333" d="M57-190v80h85v-80h32V0h-32v-87H57V0H25v-190h32" id="av"/><path fill="#333" d="M56-190L54-37l88-153h34V0h-30l2-153L59 0H25v-190h31" id="aw"/><path fill="#333" d="M138 0h-27L54-167c3 53 2 111 2 167H25v-190h49c16 56 39 106 51 166 11-61 34-110 50-166h48V0h-31l2-168" id="ax"/><g id="b"><use transform="matrix(0.06172839506172839,0,0,0.06172839506172839,0,0)" xlink:href="#aq"/><use transform="matrix(0.06172839506172839,0,0,0.06172839506172839,11.358024691358024,0)" xlink:href="#ar"/><use transform="matrix(0.06172839506172839,0,0,0.06172839506172839,23.45679012345679,0)" xlink:href="#as"/><use transform="matrix(0.06172839506172839,0,0,0.06172839506172839,34.5679012345679,0)" xlink:href="#at"/><use transform="matrix(0.06172839506172839,0,0,0.06172839506172839,46.913580246913575,0)" xlink:href="#au"/><use transform="matrix(0.06172839506172839,0,0,0.06172839506172839,59.25925925925925,0)" xlink:href="#av"/><use transform="matrix(0.06172839506172839,0,0,0.06172839506172839,71.48148148148147,0)" xlink:href="#aw"/><use transform="matrix(0.06172839506172839,0,0,0.06172839506172839,83.88888888888887,0)" xlink:href="#ax"/></g><path fill="#333" d="M170-190V0h-32v-167H57V0H25v-190h145" id="ay"/><path fill="#333" d="M100-194c63 0 86 42 84 106H49c0 40 14 67 53 68 26 1 43-12 49-29l28 8c-11 28-37 45-77 45C44 4 14-33 15-96c1-61 26-98 85-98zm52 81c6-60-76-77-97-28-3 7-6 17-6 28h103" id="az"/><path fill="#333" d="M176-55C176 11 93 0 25 0v-190c61 3 142-15 144 47 1 29-21 35-39 44 27 3 46 16 46 44zm-34 0c0-41-47-30-85-32v64c38-1 85 8 85-32zm-6-83c0-36-44-26-79-28v56c34-2 79 8 79-28" id="aA"/><path fill="#333" d="M170-56C169 10 92 0 25 0v-190h32v80c58-2 114-1 113 54zm-34 0c0-38-42-32-79-32v66c38 0 79 5 79-34zm66 56v-190h32V0h-32" id="aB"/><g id="c"><use transform="matrix(0.06172839506172839,0,0,0.06172839506172839,0,0)" xlink:href="#ay"/><use transform="matrix(0.06172839506172839,0,0,0.06172839506172839,11.975308641975309,0)" xlink:href="#az"/><use transform="matrix(0.06172839506172839,0,0,0.06172839506172839,24.320987654320987,0)" xlink:href="#at"/><use transform="matrix(0.06172839506172839,0,0,0.06172839506172839,36.666666666666664,0)" xlink:href="#aA"/><use transform="matrix(0.06172839506172839,0,0,0.06172839506172839,48.456790123456784,0)" xlink:href="#aB"/><use transform="matrix(0.06172839506172839,0,0,0.06172839506172839,64.38271604938271,0)" xlink:href="#as"/></g><path fill="#333" d="M75-87c-4 1-14 3-19 3V0H24v-190h32v83c26-2 31-21 43-41l26-42h33l-61 86L159 0h-35" id="aC"/><use transform="matrix(0.06172839506172839,0,0,0.06172839506172839,0,0)" xlink:href="#aC" id="d"/><path fill="#333" d="M168-95c0 83-77 126-137 81-11-8-19-24-21-41l32-2c0 41 62 48 80 19 9-12 11-28 13-47H63v-23h72c-2-36-11-62-49-62-26 0-39 12-43 34l-32-2c8-35 32-56 74-56 57 0 83 38 83 99" id="aD"/><path fill="#333" d="M153 0v-167H87C74-108 81-27 38 0 29 5 12 6 2 1v-22c51 4 39-64 49-112 5-25 4-25 8-57h126V0h-32" id="aE"/><path fill="#333" d="M6-190h153v23H98V0H67v-167H6v-23" id="aF"/><g id="e"><use transform="matrix(0.06172839506172839,0,0,0.06172839506172839,0,0)" xlink:href="#aD"/><use transform="matrix(0.06172839506172839,0,0,0.06172839506172839,10.802469135802468,0)" xlink:href="#aE"/><use transform="matrix(0.06172839506172839,0,0,0.06172839506172839,23.76543209876543,0)" xlink:href="#az"/><use transform="matrix(0.06172839506172839,0,0,0.06172839506172839,36.11111111111111,0)" xlink:href="#ax"/><use transform="matrix(0.06172839506172839,0,0,0.06172839506172839,51.35802469135802,0)" xlink:href="#az"/><use transform="matrix(0.06172839506172839,0,0,0.06172839506172839,63.7037037037037,0)" xlink:href="#av"/><use transform="matrix(0.06172839506172839,0,0,0.06172839506172839,75.92592592592592,0)" xlink:href="#aF"/><use transform="matrix(0.06172839506172839,0,0,0.06172839506172839,85.80246913580247,0)" xlink:href="#ar"/><use transform="matrix(0.06172839506172839,0,0,0.06172839506172839,98.14814814814815,0)" xlink:href="#aA"/></g><use transform="matrix(0.06172839506172839,0,0,0.06172839506172839,0,0)" xlink:href="#aA" id="f"/><path fill="#333" d="M156-87c-4 1-15 3-20 3V0h-31v-84c-5 0-16-2-20-3L36 0H1l62-104c-22-24-40-59-60-86h33l50 76c5 5 9 7 19 7v-83h31v83c27-1 31-21 43-41l26-42h33l-60 86L240 0h-36" id="aG"/><path fill="#333" d="M179-190L93 31C79 59 56 82 12 73V49c39 6 53-20 64-50L1-190h34L92-34l54-156h33" id="aH"/><path fill="#333" d="M131-81C94-61 21-56 21-118v-72h32c4 39-16 99 29 99 19 0 33-5 49-8v-91h31V0h-31v-81" id="aI"/><path fill="#333" d="M165-267c8 67-110 75-125 20-2-7-4-13-4-20h29c1 23 13 35 36 35s34-13 36-35h28zM56-190L54-37l88-153h34V0h-30l2-153L59 0H25v-190h31" id="aJ"/><g id="g"><use transform="matrix(0.06172839506172839,0,0,0.06172839506172839,0,0)" xlink:href="#ay"/><use transform="matrix(0.06172839506172839,0,0,0.06172839506172839,11.975308641975309,0)" xlink:href="#at"/><use transform="matrix(0.06172839506172839,0,0,0.06172839506172839,24.320987654320987,0)" xlink:href="#ar"/><use transform="matrix(0.06172839506172839,0,0,0.06172839506172839,36.666666666666664,0)" xlink:href="#ax"/><use transform="matrix(0.06172839506172839,0,0,0.06172839506172839,51.913580246913575,0)" xlink:href="#az"/><use transform="matrix(0.06172839506172839,0,0,0.06172839506172839,64.01234567901234,0)" xlink:href="#aG"/><use transform="matrix(0.06172839506172839,0,0,0.06172839506172839,79.07407407407406,0)" xlink:href="#aH"/><use transform="matrix(0.06172839506172839,0,0,0.06172839506172839,90.18518518518518,0)" xlink:href="#aF"/><use transform="matrix(0.06172839506172839,0,0,0.06172839506172839,100.06172839506172,0)" xlink:href="#ar"/><use transform="matrix(0.06172839506172839,0,0,0.06172839506172839,111.91358024691358,0)" xlink:href="#aI"/><use transform="matrix(0.06172839506172839,0,0,0.06172839506172839,123.45679012345678,0)" xlink:href="#av"/><use transform="matrix(0.06172839506172839,0,0,0.06172839506172839,135.679012345679,0)" xlink:href="#aB"/><use transform="matrix(0.06172839506172839,0,0,0.06172839506172839,151.60493827160494,0)" xlink:href="#aJ"/></g><g id="h"><use transform="matrix(0.06172839506172839,0,0,0.06172839506172839,0,0)" xlink:href="#ax"/><use transform="matrix(0.06172839506172839,0,0,0.06172839506172839,15.246913580246913,0)" xlink:href="#au"/><use transform="matrix(0.06172839506172839,0,0,0.06172839506172839,27.59259259259259,0)" xlink:href="#aq"/><use transform="matrix(0.06172839506172839,0,0,0.06172839506172839,38.7037037037037,0)" xlink:href="#aq"/><use transform="matrix(0.06172839506172839,0,0,0.06172839506172839,49.81481481481481,0)" xlink:href="#aw"/><use transform="matrix(0.06172839506172839,0,0,0.06172839506172839,62.222222222222214,0)" xlink:href="#aA"/></g><path fill="#333" d="M160-131c35 5 61 23 61 61C221 17 115-2 30 0v-248c76 3 177-17 177 60 0 33-19 50-47 57zm-97-11c50-1 110 9 110-42 0-47-63-36-110-37v79zm0 115c55-2 124 14 124-45 0-56-70-42-124-44v89" id="aK"/><path fill="#333" d="M100-194c63 0 86 42 84 106H49c0 40 14 67 53 68 26 1 43-12 49-29l28 8c-11 28-37 45-77 45C44 4 14-33 15-96c1-61 26-98 85-98zm52 81c6-60-76-77-97-28-3 7-6 17-6 28h103" id="aL"/><path fill="#333" d="M177-190C167-65 218 103 67 71c-23-6-38-20-44-43l32-5c15 47 100 32 89-28v-30C133-14 115 1 83 1 29 1 15-40 15-95c0-56 16-97 71-98 29-1 48 16 59 35 1-10 0-23 2-32h30zM94-22c36 0 50-32 50-73 0-42-14-75-50-75-39 0-46 34-46 75s6 73 46 73" id="aM"/><path fill="#333" d="M24-231v-30h32v30H24zM24 0v-190h32V0H24" id="aN"/><path fill="#333" d="M117-194c89-4 53 116 60 194h-32v-121c0-31-8-49-39-48C34-167 62-67 57 0H25l-1-190h30c1 10-1 24 2 32 11-22 29-35 61-36" id="aO"/><g id="i"><use transform="matrix(0.06172839506172839,0,0,0.06172839506172839,0,0)" xlink:href="#aK"/><use transform="matrix(0.06172839506172839,0,0,0.06172839506172839,14.814814814814813,0)" xlink:href="#aL"/><use transform="matrix(0.06172839506172839,0,0,0.06172839506172839,27.160493827160494,0)" xlink:href="#aM"/><use transform="matrix(0.06172839506172839,0,0,0.06172839506172839,39.50617283950617,0)" xlink:href="#aN"/><use transform="matrix(0.06172839506172839,0,0,0.06172839506172839,44.382716049382715,0)" xlink:href="#aO"/></g><use transform="matrix(0.06172839506172839,0,0,0.06172839506172839,0,0)" xlink:href="#aN" id="j"/><path fill="#333" d="M18-150v-26h174v26H18zm0 90v-26h174v26H18" id="aP"/><use transform="matrix(0.06172839506172839,0,0,0.06172839506172839,0,0)" xlink:href="#aP" id="k"/><path fill="#333" d="M101-251c68 0 85 55 85 127S166 4 100 4C33 4 14-52 14-124c0-73 17-127 87-127zm-1 229c47 0 54-49 54-102s-4-102-53-102c-51 0-55 48-55 102 0 53 5 102 54 102" id="aQ"/><use transform="matrix(0.06172839506172839,0,0,0.06172839506172839,0,0)" xlink:href="#aQ" id="l"/><path fill="#333" d="M18-100v-36l175-74v27L42-118l151 64v27" id="aR"/><use transform="matrix(0.06172839506172839,0,0,0.06172839506172839,0,0)" xlink:href="#aR" id="m"/><path fill="#333" d="M143 0L79-87 56-68V0H24v-261h32v163l83-92h37l-77 82L181 0h-38" id="aS"/><use transform="matrix(0.06172839506172839,0,0,0.06172839506172839,0,0)" xlink:href="#aS" id="n"/><path fill="#333" d="M26 75v-336h71v23H56V52h41v23H26" id="aT"/><path fill="#333" d="M3 75V52h41v-290H3v-23h71V75H3" id="aU"/><path fill="#333" d="M205 0l-28-72H64L36 0H1l101-248h38L239 0h-34zm-38-99l-47-123c-12 45-31 82-46 123h93" id="aV"/><path fill="#333" d="M68-36c1 33-1 63-14 82H32c9-13 17-26 17-46H33v-36h35zM33-154v-36h35v36H33" id="aW"/><g id="o"><use transform="matrix(0.06172839506172839,0,0,0.06172839506172839,0,0)" xlink:href="#aK"/><use transform="matrix(0.06172839506172839,0,0,0.06172839506172839,14.814814814814813,0)" xlink:href="#aT"/><use transform="matrix(0.06172839506172839,0,0,0.06172839506172839,20.98765432098765,0)" xlink:href="#aN"/><use transform="matrix(0.06172839506172839,0,0,0.06172839506172839,25.864197530864196,0)" xlink:href="#aU"/><use transform="matrix(0.06172839506172839,0,0,0.06172839506172839,32.03703703703704,0)" xlink:href="#aP"/><use transform="matrix(0.06172839506172839,0,0,0.06172839506172839,45,0)" xlink:href="#aV"/><use transform="matrix(0.06172839506172839,0,0,0.06172839506172839,59.81481481481481,0)" xlink:href="#aT"/><use transform="matrix(0.06172839506172839,0,0,0.06172839506172839,65.98765432098764,0)" xlink:href="#aN"/><use transform="matrix(0.06172839506172839,0,0,0.06172839506172839,70.86419753086419,0)" xlink:href="#aU"/><use transform="matrix(0.06172839506172839,0,0,0.06172839506172839,77.03703703703702,0)" xlink:href="#aW"/></g><path fill="#333" d="M118-107v75H92v-75H18v-26h74v-75h26v75h74v26h-74" id="aX"/><g id="p"><use transform="matrix(0.06172839506172839,0,0,0.06172839506172839,0,0)" xlink:href="#aN"/><use transform="matrix(0.06172839506172839,0,0,0.06172839506172839,4.876543209876543,0)" xlink:href="#aP"/><use transform="matrix(0.06172839506172839,0,0,0.06172839506172839,17.839506172839506,0)" xlink:href="#aN"/><use transform="matrix(0.06172839506172839,0,0,0.06172839506172839,22.71604938271605,0)" xlink:href="#aX"/><use transform="matrix(0.06172839506172839,0,0,0.06172839506172839,35.67901234567901,0)" xlink:href="#ao"/><use transform="matrix(0.06172839506172839,0,0,0.06172839506172839,48.02469135802469,0)" xlink:href="#aW"/></g><path fill="#333" d="M190 0L58-211 59 0H30v-248h39L202-35l-2-213h31V0h-41" id="aY"/><use transform="matrix(0.06172839506172839,0,0,0.06172839506172839,0,0)" xlink:href="#aY" id="q"/><path fill="#333" d="M16-82v-28h88v28H16" id="aZ"/><g id="r"><use transform="matrix(0.06172839506172839,0,0,0.06172839506172839,0,0)" xlink:href="#aV"/><use transform="matrix(0.06172839506172839,0,0,0.06172839506172839,14.814814814814813,0)" xlink:href="#aT"/><use transform="matrix(0.06172839506172839,0,0,0.06172839506172839,20.98765432098765,0)" xlink:href="#aN"/><use transform="matrix(0.06172839506172839,0,0,0.06172839506172839,25.864197530864196,0)" xlink:href="#aZ"/><use transform="matrix(0.06172839506172839,0,0,0.06172839506172839,33.20987654320987,0)" xlink:href="#aS"/><use transform="matrix(0.06172839506172839,0,0,0.06172839506172839,44.32098765432099,0)" xlink:href="#aU"/><use transform="matrix(0.06172839506172839,0,0,0.06172839506172839,50.49382716049383,0)" xlink:href="#aP"/><use transform="matrix(0.06172839506172839,0,0,0.06172839506172839,63.456790123456784,0)" xlink:href="#aV"/><use transform="matrix(0.06172839506172839,0,0,0.06172839506172839,78.27160493827161,0)" xlink:href="#aT"/><use transform="matrix(0.06172839506172839,0,0,0.06172839506172839,84.44444444444444,0)" xlink:href="#aN"/><use transform="matrix(0.06172839506172839,0,0,0.06172839506172839,89.32098765432099,0)" xlink:href="#aU"/><use transform="matrix(0.06172839506172839,0,0,0.06172839506172839,95.49382716049382,0)" xlink:href="#aW"/></g><g id="s"><use transform="matrix(0.06172839506172839,0,0,0.06172839506172839,0,0)" xlink:href="#aN"/><use transform="matrix(0.06172839506172839,0,0,0.06172839506172839,4.876543209876543,0)" xlink:href="#aP"/><use transform="matrix(0.06172839506172839,0,0,0.06172839506172839,17.839506172839506,0)" xlink:href="#aQ"/></g><g id="t"><use transform="matrix(0.06172839506172839,0,0,0.06172839506172839,0,0)" xlink:href="#aV"/><use transform="matrix(0.06172839506172839,0,0,0.06172839506172839,14.814814814814813,0)" xlink:href="#aT"/><use transform="matrix(0.06172839506172839,0,0,0.06172839506172839,20.98765432098765,0)" xlink:href="#aY"/><use transform="matrix(0.06172839506172839,0,0,0.06172839506172839,36.9753086419753,0)" xlink:href="#aZ"/><use transform="matrix(0.06172839506172839,0,0,0.06172839506172839,44.32098765432098,0)" xlink:href="#aS"/><use transform="matrix(0.06172839506172839,0,0,0.06172839506172839,55.43209876543209,0)" xlink:href="#aX"/><use transform="matrix(0.06172839506172839,0,0,0.06172839506172839,68.39506172839505,0)" xlink:href="#aN"/><use transform="matrix(0.06172839506172839,0,0,0.06172839506172839,73.2716049382716,0)" xlink:href="#aU"/><use transform="matrix(0.06172839506172839,0,0,0.06172839506172839,79.44444444444443,0)" xlink:href="#aP"/><use transform="matrix(0.06172839506172839,0,0,0.06172839506172839,92.40740740740739,0)" xlink:href="#aK"/><use transform="matrix(0.06172839506172839,0,0,0.06172839506172839,107.2222222222222,0)" xlink:href="#aT"/><use transform="matrix(0.06172839506172839,0,0,0.06172839506172839,113.39506172839504,0)" xlink:href="#aN"/><use transform="matrix(0.06172839506172839,0,0,0.06172839506172839,118.27160493827158,0)" xlink:href="#aU"/><use transform="matrix(0.06172839506172839,0,0,0.06172839506172839,124.44444444444441,0)" xlink:href="#aW"/></g><path fill="#333" d="M147-157h-42c-8 43-13 90-29 124h71v-124zM24-33c25-41 30-96 40-157h132v157h26V72h-43V0H46v72H2V-33h22" id="ba"/><path fill="#333" d="M133-34C117-15 103 5 69 4 32 3 11-16 11-54c-1-60 55-63 116-61 1-26-3-47-28-47-18 1-26 9-28 27l-52-2c7-38 36-58 82-57s74 22 75 68l1 82c-1 14 12 18 25 15v27c-30 8-71 5-69-32zm-48 3c29 0 43-24 42-57-32 0-66-3-65 30 0 17 8 27 23 27" id="bb"/><g id="u"><use transform="matrix(0.04938271604938272,0,0,0.04938271604938272,0,0)" xlink:href="#ba"/><use transform="matrix(0.04938271604938272,0,0,0.04938271604938272,11.25925925925926,0)" xlink:href="#bb"/></g><path fill="#333" d="M30 0v-248h187v28H63v79h144v27H63v87h162V0H30" id="bc"/><path fill="#333" d="M85-194c31 0 48 13 60 33l-1-100h32l1 261h-30c-2-10 0-23-3-31C134-8 116 4 85 4 32 4 16-35 15-94c0-66 23-100 70-100zm9 24c-40 0-46 34-46 75 0 40 6 74 45 74 42 0 51-32 51-76 0-42-9-74-50-73" id="bd"/><g id="v"><use transform="matrix(0.06172839506172839,0,0,0.06172839506172839,0,0)" xlink:href="#bc"/><use transform="matrix(0.06172839506172839,0,0,0.06172839506172839,14.814814814814813,0)" xlink:href="#aO"/><use transform="matrix(0.06172839506172839,0,0,0.06172839506172839,27.160493827160494,0)" xlink:href="#bd"/></g><path fill="#333" d="M75-190v75h68v-75h49V0h-49v-81H75V0H25v-190h50" id="be"/><path fill="#333" d="M185-48c-13 30-37 53-82 52C43 2 14-33 14-96s30-98 90-98c62 0 83 45 84 108H66c0 31 8 55 39 56 18 0 30-7 34-22zm-45-69c5-46-57-63-70-21-2 6-4 13-4 21h74" id="bf"/><path fill="#333" d="M10-190h156v33h-53V0H63v-157H10v-33" id="bg"/><g id="w"><use transform="matrix(0.04938271604938272,0,0,0.04938271604938272,0,0)" xlink:href="#be"/><use transform="matrix(0.04938271604938272,0,0,0.04938271604938272,10.71604938271605,0)" xlink:href="#bf"/><use transform="matrix(0.04938271604938272,0,0,0.04938271604938272,20.345679012345684,0)" xlink:href="#bg"/></g><g id="x"><use transform="matrix(0.06172839506172839,0,0,0.06172839506172839,0,0)" xlink:href="#aN"/><use transform="matrix(0.06172839506172839,0,0,0.06172839506172839,4.876543209876543,0)" xlink:href="#aP"/><use transform="matrix(0.06172839506172839,0,0,0.06172839506172839,17.839506172839506,0)" xlink:href="#aS"/></g><path fill="#333" d="M212-179c-10-28-35-45-73-45-59 0-87 40-87 99 0 60 29 101 89 101 43 0 62-24 78-52l27 14C228-24 195 4 139 4 59 4 22-46 18-125c-6-104 99-153 187-111 19 9 31 26 39 46" id="bh"/><g id="y"><use transform="matrix(0.06172839506172839,0,0,0.06172839506172839,0,0)" xlink:href="#bh"/><use transform="matrix(0.06172839506172839,0,0,0.06172839506172839,15.987654320987653,0)" xlink:href="#aF"/><use transform="matrix(0.06172839506172839,0,0,0.06172839506172839,25.864197530864196,0)" xlink:href="#au"/><use transform="matrix(0.06172839506172839,0,0,0.06172839506172839,38.20987654320987,0)" xlink:href="#at"/><use transform="matrix(0.06172839506172839,0,0,0.06172839506172839,50.06172839506172,0)" xlink:href="#aF"/></g><path fill="#333" d="M195 0l-74-108L45 0H8l94-129-87-119h37l69 98 67-98h37l-84 118L233 0h-38" id="bi"/><path fill="#333" d="M59-47c-2 24 18 29 38 22v24C64 9 27 4 27-40v-127H5v-23h24l9-43h21v43h35v23H59v120" id="bj"/><path fill="#333" d="M101-251c82-7 93 87 43 132L82-64C71-53 59-42 53-27h129V0H18c2-99 128-94 128-182 0-28-16-43-45-43s-46 15-49 41l-32-3c6-41 34-60 81-64" id="bk"/><path fill="#333" d="M54-142c48-35 137-8 131 61C196 18 31 33 14-55l32-4c7 23 22 37 52 37 35-1 51-22 54-58 4-55-73-65-99-34H22l8-134h141v27H59" id="bl"/><g id="z"><use transform="matrix(0.06172839506172839,0,0,0.06172839506172839,0,0)" xlink:href="#bi"/><use transform="matrix(0.06172839506172839,0,0,0.06172839506172839,14.814814814814813,0)" xlink:href="#aP"/><use transform="matrix(0.06172839506172839,0,0,0.06172839506172839,27.777777777777775,0)" xlink:href="#aN"/><use transform="matrix(0.06172839506172839,0,0,0.06172839506172839,32.654320987654316,0)" xlink:href="#aO"/><use transform="matrix(0.06172839506172839,0,0,0.06172839506172839,44.99999999999999,0)" xlink:href="#bj"/><use transform="matrix(0.06172839506172839,0,0,0.06172839506172839,51.172839506172835,0)" xlink:href="#aT"/><use transform="matrix(0.06172839506172839,0,0,0.06172839506172839,57.34567901234568,0)" xlink:href="#bk"/><use transform="matrix(0.06172839506172839,0,0,0.06172839506172839,69.69135802469135,0)" xlink:href="#bl"/><use transform="matrix(0.06172839506172839,0,0,0.06172839506172839,82.03703703703704,0)" xlink:href="#aU"/><use transform="matrix(0.06172839506172839,0,0,0.06172839506172839,88.20987654320987,0)" xlink:href="#aW"/></g><path d="M143 0L79-87 56-68V0H24v-261h32v163l83-92h37l-77 82L181 0h-38" id="bm"/><path d="M18-150v-26h174v26H18zm0 90v-26h174v26H18" id="bn"/><path d="M101-251c68 0 85 55 85 127S166 4 100 4C33 4 14-52 14-124c0-73 17-127 87-127zm-1 229c47 0 54-49 54-102s-4-102-53-102c-51 0-55 48-55 102 0 53 5 102 54 102" id="bo"/><path d="M68-36c1 33-1 63-14 82H32c9-13 17-26 17-46H33v-36h35zM33-154v-36h35v36H33" id="bp"/><g id="A"><use transform="matrix(0.05432111111111112,0,0,0.05432111111111112,0,0)" xlink:href="#bm"/><use transform="matrix(0.05432111111111112,0,0,0.05432111111111112,9.777800000000001,0)" xlink:href="#bn"/><use transform="matrix(0.05432111111111112,0,0,0.05432111111111112,21.185233333333336,0)" xlink:href="#bo"/><use transform="matrix(0.05432111111111112,0,0,0.05432111111111112,32.04945555555556,0)" xlink:href="#bp"/></g><path d="M24 0v-261h32V0H24" id="bq"/><path d="M141-36C126-15 110 5 73 4 37 3 15-17 15-53c-1-64 63-63 125-63 3-35-9-54-41-54-24 1-41 7-42 31l-33-3c5-37 33-52 76-52 45 0 72 20 72 64v82c-1 20 7 32 28 27v20c-31 9-61-2-59-35zM48-53c0 20 12 33 32 33 41-3 63-29 60-74-43 2-92-5-92 41" id="br"/><path d="M135-143c-3-34-86-38-87 0 15 53 115 12 119 90S17 21 10-45l28-5c4 36 97 45 98 0-10-56-113-15-118-90-4-57 82-63 122-42 12 7 21 19 24 35" id="bs"/><path d="M59-47c-2 24 18 29 38 22v24C64 9 27 4 27-40v-127H5v-23h24l9-43h21v43h35v23H59v120" id="bt"/><path d="M33 0v-248h34V0H33" id="bu"/><path d="M100-194c63 0 86 42 84 106H49c0 40 14 67 53 68 26 1 43-12 49-29l28 8c-11 28-37 45-77 45C44 4 14-33 15-96c1-61 26-98 85-98zm52 81c6-60-76-77-97-28-3 7-6 17-6 28h103" id="bv"/><path d="M210-169c-67 3-38 105-44 169h-31v-121c0-29-5-50-35-48C34-165 62-65 56 0H25l-1-190h30c1 10-1 24 2 32 10-44 99-50 107 0 11-21 27-35 58-36 85-2 47 119 55 194h-31v-121c0-29-5-49-35-48" id="bw"/><path d="M117-194c89-4 53 116 60 194h-32v-121c0-31-8-49-39-48C34-167 62-67 57 0H25l-1-190h30c1 10-1 24 2 32 11-22 29-35 61-36" id="bx"/><path d="M85-194c31 0 48 13 60 33l-1-100h32l1 261h-30c-2-10 0-23-3-31C134-8 116 4 85 4 32 4 16-35 15-94c0-66 23-100 70-100zm9 24c-40 0-46 34-46 75 0 40 6 74 45 74 42 0 51-32 51-76 0-42-9-74-50-73" id="by"/><path d="M141 0L90-78 38 0H4l68-98-65-92h35l48 74 47-74h35l-64 92 68 98h-35" id="bz"/><g id="B"><use transform="matrix(0.05432111111111112,0,0,0.05432111111111112,0,0)" xlink:href="#bq"/><use transform="matrix(0.05432111111111112,0,0,0.05432111111111112,4.291367777777778,0)" xlink:href="#br"/><use transform="matrix(0.05432111111111112,0,0,0.05432111111111112,15.155590000000005,0)" xlink:href="#bs"/><use transform="matrix(0.05432111111111112,0,0,0.05432111111111112,24.933390000000003,0)" xlink:href="#bt"/><use transform="matrix(0.05432111111111112,0,0,0.05432111111111112,30.365501111111115,0)" xlink:href="#bu"/><use transform="matrix(0.05432111111111112,0,0,0.05432111111111112,35.79761222222223,0)" xlink:href="#bt"/><use transform="matrix(0.05432111111111112,0,0,0.05432111111111112,41.22972333333334,0)" xlink:href="#bv"/><use transform="matrix(0.05432111111111112,0,0,0.05432111111111112,52.093945555555564,0)" xlink:href="#bw"/><use transform="matrix(0.05432111111111112,0,0,0.05432111111111112,68.3359577777778,0)" xlink:href="#bu"/><use transform="matrix(0.05432111111111112,0,0,0.05432111111111112,73.7680688888889,0)" xlink:href="#bx"/><use transform="matrix(0.05432111111111112,0,0,0.05432111111111112,84.63229111111113,0)" xlink:href="#by"/><use transform="matrix(0.05432111111111112,0,0,0.05432111111111112,95.49651333333335,0)" xlink:href="#bv"/><use transform="matrix(0.05432111111111112,0,0,0.05432111111111112,106.36073555555558,0)" xlink:href="#bz"/><use transform="matrix(0.05432111111111112,0,0,0.05432111111111112,116.13853555555558,0)" xlink:href="#bn"/><use transform="matrix(0.05432111111111112,0,0,0.05432111111111112,127.54596888888891,0)" xlink:href="#bo"/><use transform="matrix(0.05432111111111112,0,0,0.05432111111111112,138.41019111111115,0)" xlink:href="#bp"/></g><path d="M127-220V0H93v-220H8v-28h204v28h-85" id="bA"/><path d="M115-194c55 1 70 41 70 98S169 2 115 4C84 4 66-9 55-30l1 105H24l-1-265h31l2 30c10-21 28-34 59-34zm-8 174c40 0 45-34 45-75s-6-73-45-74c-42 0-51 32-51 76 0 43 10 73 51 73" id="bB"/><g id="C"><use transform="matrix(0.05432111111111112,0,0,0.05432111111111112,0,0)" xlink:href="#bm"/><use transform="matrix(0.05432111111111112,0,0,0.05432111111111112,9.777800000000001,0)" xlink:href="#bA"/><use transform="matrix(0.05432111111111112,0,0,0.05432111111111112,19.50127888888889,0)" xlink:href="#bv"/><use transform="matrix(0.05432111111111112,0,0,0.05432111111111112,30.365501111111115,0)" xlink:href="#bw"/><use transform="matrix(0.05432111111111112,0,0,0.05432111111111112,46.607513333333344,0)" xlink:href="#bB"/><use transform="matrix(0.05432111111111112,0,0,0.05432111111111112,57.47173555555556,0)" xlink:href="#bn"/><use transform="matrix(0.05432111111111112,0,0,0.05432111111111112,68.8791688888889,0)" xlink:href="#bo"/></g><path fill="#333" d="M147-167H93C83-118 77-63 59-23h88v-144zM24-23c26-44 31-102 41-167h113v167h26v95h-29V0H32v72H4v-95h20" id="bC"/><path fill="#333" d="M20-138c-1-64 85-51 150-52V0h-32v-81H94L39 0H3l60-83c-28-5-43-24-43-55zm33 3c0 40 46 33 85 33v-66c-39 0-85-6-85 33" id="bD"/><g id="D"><use transform="matrix(0.06172839506172839,0,0,0.06172839506172839,0,0)" xlink:href="#bC"/><use transform="matrix(0.06172839506172839,0,0,0.06172839506172839,12.962962962962962,0)" xlink:href="#aE"/><use transform="matrix(0.06172839506172839,0,0,0.06172839506172839,25.925925925925924,0)" xlink:href="#bD"/></g><use transform="matrix(0.06172839506172839,0,0,0.06172839506172839,0,0)" xlink:href="#aN" id="E"/><g id="F"><use transform="matrix(0.06172839506172839,0,0,0.06172839506172839,0,0)" xlink:href="#ar"/><use transform="matrix(0.06172839506172839,0,0,0.06172839506172839,11.851851851851851,0)" xlink:href="#aF"/></g><use transform="matrix(0.06172839506172839,0,0,0.06172839506172839,0,0)" xlink:href="#ao" id="G"/><g id="H"><use transform="matrix(0.06172839506172839,0,0,0.06172839506172839,0,0)" xlink:href="#bC"/><use transform="matrix(0.06172839506172839,0,0,0.06172839506172839,12.962962962962962,0)" xlink:href="#ar"/></g><g id="I"><use transform="matrix(0.06172839506172839,0,0,0.06172839506172839,0,0)" xlink:href="#ao"/><use transform="matrix(0.06172839506172839,0,0,0.06172839506172839,12.345679012345679,0)" xlink:href="#aQ"/><use transform="matrix(0.06172839506172839,0,0,0.06172839506172839,24.691358024691358,0)" xlink:href="#aQ"/></g><path fill="#333" d="M114-163C36-179 61-72 57 0H25l-1-190h30c1 12-1 29 2 39 6-27 23-49 58-41v29" id="bE"/><path fill="#333" d="M141-36C126-15 110 5 73 4 37 3 15-17 15-53c-1-64 63-63 125-63 3-35-9-54-41-54-24 1-41 7-42 31l-33-3c5-37 33-52 76-52 45 0 72 20 72 64v82c-1 20 7 32 28 27v20c-31 9-61-2-59-35zM48-53c0 20 12 33 32 33 41-3 63-29 60-74-43 2-92-5-92 41" id="bF"/><path fill="#333" d="M100-194c62-1 85 37 85 99 1 63-27 99-86 99S16-35 15-95c0-66 28-99 85-99zM99-20c44 1 53-31 53-75 0-43-8-75-51-75s-53 32-53 75 10 74 51 75" id="bG"/><path fill="#333" d="M210-169c-67 3-38 105-44 169h-31v-121c0-29-5-50-35-48C34-165 62-65 56 0H25l-1-190h30c1 10-1 24 2 32 10-44 99-50 107 0 11-21 27-35 58-36 85-2 47 119 55 194h-31v-121c0-29-5-49-35-48" id="bH"/><path fill="#333" d="M87 75C49 33 22-17 22-94c0-76 28-126 65-167h31c-38 41-64 92-64 168S80 34 118 75H87" id="bI"/><path fill="#333" d="M68-38c1 34 0 65-14 84H32c9-13 17-26 17-46H33v-38h35" id="bJ"/><path fill="#333" d="M33-261c38 41 65 92 65 168S71 34 33 75H2C39 34 66-17 66-93S39-220 2-261h31" id="bK"/><g id="J"><use transform="matrix(0.06172839506172839,0,0,0.06172839506172839,0,0)" xlink:href="#bi"/><use transform="matrix(0.06172839506172839,0,0,0.06172839506172839,14.814814814814813,0)" xlink:href="#aT"/><use transform="matrix(0.06172839506172839,0,0,0.06172839506172839,20.98765432098765,0)" xlink:href="#aN"/><use transform="matrix(0.06172839506172839,0,0,0.06172839506172839,25.864197530864196,0)" xlink:href="#aU"/><use transform="matrix(0.06172839506172839,0,0,0.06172839506172839,32.03703703703704,0)" xlink:href="#aP"/><use transform="matrix(0.06172839506172839,0,0,0.06172839506172839,45,0)" xlink:href="#bE"/><use transform="matrix(0.06172839506172839,0,0,0.06172839506172839,52.34567901234568,0)" xlink:href="#bF"/><use transform="matrix(0.06172839506172839,0,0,0.06172839506172839,64.69135802469135,0)" xlink:href="#aO"/><use transform="matrix(0.06172839506172839,0,0,0.06172839506172839,77.03703703703704,0)" xlink:href="#bd"/><use transform="matrix(0.06172839506172839,0,0,0.06172839506172839,89.38271604938272,0)" xlink:href="#bG"/><use transform="matrix(0.06172839506172839,0,0,0.06172839506172839,101.7283950617284,0)" xlink:href="#bH"/><use transform="matrix(0.06172839506172839,0,0,0.06172839506172839,120.18518518518519,0)" xlink:href="#bI"/><use transform="matrix(0.06172839506172839,0,0,0.06172839506172839,127.53086419753089,0)" xlink:href="#ao"/><use transform="matrix(0.06172839506172839,0,0,0.06172839506172839,139.87654320987656,0)" xlink:href="#bJ"/><use transform="matrix(0.06172839506172839,0,0,0.06172839506172839,146.0493827160494,0)" xlink:href="#ao"/><use transform="matrix(0.06172839506172839,0,0,0.06172839506172839,158.39506172839506,0)" xlink:href="#aQ"/><use transform="matrix(0.06172839506172839,0,0,0.06172839506172839,170.74074074074073,0)" xlink:href="#aQ"/><use transform="matrix(0.06172839506172839,0,0,0.06172839506172839,183.0864197530864,0)" xlink:href="#bK"/></g><path fill="#333" d="M115-194c55 1 70 41 70 98S169 2 115 4C84 4 66-9 55-30l1 105H24l-1-265h31l2 30c10-21 28-34 59-34zm-8 174c40 0 45-34 45-75s-6-73-45-74c-42 0-51 32-51 76 0 43 10 73 51 73" id="bL"/><path fill="#333" d="M252-156c43 0 55 33 55 80 0 46-13 78-56 78-42 0-55-33-55-78 0-48 12-80 56-80zM93 0H65l162-248h28zM13-171c-1-47 13-79 56-79s55 33 55 79-13 79-55 79c-43 0-56-33-56-79zM251-17c28 0 30-29 30-59 0-31-1-60-29-60-29 0-31 29-31 60 0 29 2 59 30 59zM69-112c27 0 28-30 29-59 0-31-1-60-29-60-29 0-30 30-30 60s2 59 30 59" id="bM"/><g id="K"><use transform="matrix(0.06172839506172839,0,0,0.06172839506172839,0,0)" xlink:href="#bI"/><use transform="matrix(0.06172839506172839,0,0,0.06172839506172839,7.345679012345679,0)" xlink:href="#bL"/><use transform="matrix(0.06172839506172839,0,0,0.06172839506172839,19.691358024691358,0)" xlink:href="#bM"/><use transform="matrix(0.06172839506172839,0,0,0.06172839506172839,39.44444444444444,0)" xlink:href="#bk"/><use transform="matrix(0.06172839506172839,0,0,0.06172839506172839,51.79012345679012,0)" xlink:href="#aP"/><use transform="matrix(0.06172839506172839,0,0,0.06172839506172839,64.75308641975309,0)" xlink:href="#aP"/><use transform="matrix(0.06172839506172839,0,0,0.06172839506172839,77.71604938271605,0)" xlink:href="#ao"/></g><path fill="#333" d="M234-2c-28 10-62 0-77-18C117 19 8 12 13-65c3-43 29-61 60-76-25-40-17-114 47-108 35 3 59 15 59 50 0 44-40 53-71 69 14 26 32 50 51 72 14-21 24-43 30-72l26 8c-9 33-21 57-38 82 13 13 33 22 57 15v23zM97-151c25-10 52-18 56-48-1-18-13-29-33-29-42 0-39 50-23 77zM42-66c-3 51 71 58 98 28-20-24-41-51-56-80-23 10-40 24-42 52" id="bN"/><g id="L"><use transform="matrix(0.06172839506172839,0,0,0.06172839506172839,0,0)" xlink:href="#bN"/><use transform="matrix(0.06172839506172839,0,0,0.06172839506172839,14.814814814814813,0)" xlink:href="#bN"/></g><path d="M195 0l-74-108L45 0H8l94-129-87-119h37l69 98 67-98h37l-84 118L233 0h-38" id="bO"/><path d="M26 75v-336h71v23H56V52h41v23H26" id="bP"/><path d="M3 75V52h41v-290H3v-23h71V75H3" id="bQ"/><g id="M"><use transform="matrix(0.05432111111111112,0,0,0.05432111111111112,0,0)" xlink:href="#bO"/><use transform="matrix(0.05432111111111112,0,0,0.05432111111111112,13.037066666666668,0)" xlink:href="#bP"/><use transform="matrix(0.05432111111111112,0,0,0.05432111111111112,18.46917777777778,0)" xlink:href="#bB"/><use transform="matrix(0.05432111111111112,0,0,0.05432111111111112,29.333400000000005,0)" xlink:href="#bQ"/></g><path d="M18-27v-27l151-64-151-65v-27l175 74v36" id="bR"/><use transform="matrix(0.05432111111111112,0,0,0.05432111111111112,0,0)" xlink:href="#bR" id="N"/><path d="M16-82v-28h88v28H16" id="bS"/><path d="M27 0v-27h64v-190l-56 39v-29l58-41h29v221h61V0H27" id="bT"/><g id="O"><use transform="matrix(0.05432111111111112,0,0,0.05432111111111112,0,0)" xlink:href="#bO"/><use transform="matrix(0.05432111111111112,0,0,0.05432111111111112,13.037066666666668,0)" xlink:href="#bP"/><use transform="matrix(0.05432111111111112,0,0,0.05432111111111112,18.46917777777778,0)" xlink:href="#bB"/><use transform="matrix(0.05432111111111112,0,0,0.05432111111111112,29.333400000000005,0)" xlink:href="#bS"/><use transform="matrix(0.05432111111111112,0,0,0.05432111111111112,35.79761222222223,0)" xlink:href="#bT"/><use transform="matrix(0.05432111111111112,0,0,0.05432111111111112,46.66183444444445,0)" xlink:href="#bQ"/><use transform="matrix(0.06172839506172839,0,0,0.06172839506172839,52.093945555555564,0)" xlink:href="#bK"/></g><path fill="#333" d="M32 76v-337h29V76H32" id="bU"/><g id="P"><use transform="matrix(0.06172839506172839,0,0,0.06172839506172839,0,0)" xlink:href="#bU"/><use transform="matrix(0.06172839506172839,0,0,0.06172839506172839,5.7407407407407405,0)" xlink:href="#bU"/></g><g id="Q"><use transform="matrix(0.06172839506172839,0,0,0.06172839506172839,0,0)" xlink:href="#bI"/><use transform="matrix(0.06172839506172839,0,0,0.06172839506172839,7.345679012345679,0)" xlink:href="#bL"/><use transform="matrix(0.06172839506172839,0,0,0.06172839506172839,19.691358024691358,0)" xlink:href="#bM"/><use transform="matrix(0.06172839506172839,0,0,0.06172839506172839,39.44444444444444,0)" xlink:href="#bk"/><use transform="matrix(0.06172839506172839,0,0,0.06172839506172839,51.79012345679012,0)" xlink:href="#aP"/><use transform="matrix(0.06172839506172839,0,0,0.06172839506172839,64.75308641975309,0)" xlink:href="#aP"/><use transform="matrix(0.06172839506172839,0,0,0.06172839506172839,77.71604938271605,0)" xlink:href="#aQ"/></g><path d="M18-100v-36l175-74v27L42-118l151 64v27" id="bV"/><use transform="matrix(0.05432111111111112,0,0,0.05432111111111112,0,0)" xlink:href="#bV" id="R"/><g id="S"><use transform="matrix(0.05432111111111112,0,0,0.05432111111111112,0,0)" xlink:href="#bO"/><use transform="matrix(0.05432111111111112,0,0,0.05432111111111112,13.037066666666668,0)" xlink:href="#bP"/><use transform="matrix(0.05432111111111112,0,0,0.05432111111111112,18.46917777777778,0)" xlink:href="#bB"/><use transform="matrix(0.05432111111111112,0,0,0.05432111111111112,29.333400000000005,0)" xlink:href="#bS"/><use transform="matrix(0.05432111111111112,0,0,0.05432111111111112,35.79761222222223,0)" xlink:href="#bT"/><use transform="matrix(0.05432111111111112,0,0,0.05432111111111112,46.66183444444445,0)" xlink:href="#bQ"/><use transform="matrix(0.06172839506172839,0,0,0.06172839506172839,52.093945555555564,0)" xlink:href="#bK"/></g><path d="M118-107v75H92v-75H18v-26h74v-75h26v75h74v26h-74" id="bW"/><g id="T"><use transform="matrix(0.05432111111111112,0,0,0.05432111111111112,0,0)" xlink:href="#bm"/><use transform="matrix(0.05432111111111112,0,0,0.05432111111111112,9.777800000000001,0)" xlink:href="#bA"/><use transform="matrix(0.05432111111111112,0,0,0.05432111111111112,19.50127888888889,0)" xlink:href="#bv"/><use transform="matrix(0.05432111111111112,0,0,0.05432111111111112,30.365501111111115,0)" xlink:href="#bw"/><use transform="matrix(0.05432111111111112,0,0,0.05432111111111112,46.607513333333344,0)" xlink:href="#bB"/><use transform="matrix(0.05432111111111112,0,0,0.05432111111111112,57.47173555555556,0)" xlink:href="#bW"/><use transform="matrix(0.05432111111111112,0,0,0.05432111111111112,68.8791688888889,0)" xlink:href="#bW"/></g><path d="M873-819c-18-114-119-146-250-146-163 0-245 50-245 151 0 151 170 148 294 185 182 54 388 94 388 320 0 240-189 325-439 329-245 4-410-69-454-268l159-31c24 133 136 168 295 165 144-2 270-31 270-171 0-164-195-160-331-202-167-52-350-87-350-299 0-218 173-315 413-313 220 2 373 77 412 260" id="bX"/><path d="M745-142h380V0H143v-142h422v-798H246v-142h499v940zM545-1292v-192h200v192H545" id="bY"/><path d="M147 0v-137l681-806H187v-139h844v137L349-139h719V0H147" id="bZ"/><path d="M617-1102c355 0 481 238 477 599H322c5 222 84 388 301 388 144 0 244-59 284-166l158 45C1002-72 854 20 623 20c-342 0-490-220-490-568 0-346 151-554 484-554zm291 461c-18-192-90-328-289-328-194 0-287 128-295 328h584" id="ca"/><path d="M615-1102c343 0 484 203 482 560-1 347-147 562-488 562-336 0-475-219-479-562-4-349 156-560 485-560zm-8 989c240 0 301-180 301-429 0-245-55-427-290-427-236 0-299 181-299 427 0 243 61 429 288 429" id="cb"/><path d="M839-1335c-182-6-269 67-259 253h491v142H580V0H400v-940H138v-142h262c-15-293 132-408 418-402 94 2 200 7 281 21v145c-75-10-177-14-260-17" id="cc"/><path d="M891-1484c-201 251-362 514-362 954 0 441 161 704 362 955H701C500 176 342-90 342-532c0-440 159-704 359-952h190" id="cd"/><path d="M614-836l333-513h205L717-705 1193 0H988L614-573 241 0H36l476-705-435-644h205" id="ce"/><path d="M528-1484c201 248 357 511 357 952 0 442-156 709-357 957H336C537 174 700-89 700-530c0-440-163-703-364-954h192" id="cf"/><path d="M496-783v-299h235v299H496zM352 363l169-662h265L475 363H352" id="cg"/><path d="M698-1104c312 3 392 244 392 558 0 315-82 566-392 566-169 0-277-65-331-184h-5c8 188 2 394 4 589H185V-858c0-76-1-156-6-224h175c6 52 9 120 10 178h4c58-122 150-202 330-200zm-49 991c225 0 255-203 255-433 0-225-32-419-253-419-236 0-285 192-285 441 0 237 53 411 283 411" id="ch"/><path d="M687-608v428H540v-428H116v-146h424v-428h147v428h424v146H687" id="ci"/><g id="U"><use transform="matrix(0.06172839506172839,0,0,0.06172839506172839,0,0)" xlink:href="#bL"/><use transform="matrix(0.06172839506172839,0,0,0.06172839506172839,12.345679012345679,0)" xlink:href="#aP"/><use transform="matrix(0.06172839506172839,0,0,0.06172839506172839,25.30864197530864,0)" xlink:href="#ao"/><use transform="matrix(0.06172839506172839,0,0,0.06172839506172839,37.654320987654316,0)" xlink:href="#aW"/><use transform="matrix(0.06172839506172839,0,0,0.06172839506172839,43.82716049382716,0)" xlink:href="#bL"/><use transform="matrix(0.06172839506172839,0,0,0.06172839506172839,56.172839506172835,0)" xlink:href="#aR"/><use transform="matrix(0.008463541666666668,0,0,0.008463541666666668,69.1358024691358,0)" xlink:href="#bX"/><use transform="matrix(0.008463541666666668,0,0,0.008463541666666668,79.53749517746913,0)" xlink:href="#bY"/><use transform="matrix(0.008463541666666668,0,0,0.008463541666666668,89.93918788580247,0)" xlink:href="#bZ"/><use transform="matrix(0.008463541666666668,0,0,0.008463541666666668,100.34088059413578,0)" xlink:href="#ca"/><use transform="matrix(0.008463541666666668,0,0,0.008463541666666668,110.74257330246911,0)" xlink:href="#cb"/><use transform="matrix(0.008463541666666668,0,0,0.008463541666666668,121.14426601080244,0)" xlink:href="#cc"/><use transform="matrix(0.008463541666666668,0,0,0.008463541666666668,131.54595871913577,0)" xlink:href="#cd"/><use transform="matrix(0.008463541666666668,0,0,0.008463541666666668,141.9476514274691,0)" xlink:href="#ce"/><use transform="matrix(0.008463541666666668,0,0,0.008463541666666668,152.34934413580243,0)" xlink:href="#cf"/><use transform="matrix(0.008463541666666668,0,0,0.008463541666666668,162.7510368441358,0)" xlink:href="#cg"/><use transform="matrix(0.008463541666666668,0,0,0.008463541666666668,173.15272955246914,0)" xlink:href="#ch"/><use transform="matrix(0.008463541666666668,0,0,0.008463541666666668,183.55442226080248,0)" xlink:href="#ci"/><use transform="matrix(0.008463541666666668,0,0,0.008463541666666668,193.95611496913585,0)" xlink:href="#ci"/></g><g id="V"><use transform="matrix(0.05432111111111112,0,0,0.05432111111111112,0,0)" xlink:href="#bm"/><use transform="matrix(0.05432111111111112,0,0,0.05432111111111112,9.777800000000001,0)" xlink:href="#bA"/><use transform="matrix(0.05432111111111112,0,0,0.05432111111111112,19.50127888888889,0)" xlink:href="#bv"/><use transform="matrix(0.05432111111111112,0,0,0.05432111111111112,30.365501111111115,0)" xlink:href="#bw"/><use transform="matrix(0.05432111111111112,0,0,0.05432111111111112,46.607513333333344,0)" xlink:href="#bB"/></g><use transform="matrix(0.05432111111111112,0,0,0.05432111111111112,0,0)" xlink:href="#bm" id="W"/><use transform="matrix(0.05432111111111112,0,0,0.05432111111111112,0,0)" xlink:href="#bm" id="X"/><use transform="matrix(0.05432111111111112,0,0,0.05432111111111112,0,0)" xlink:href="#bn" id="Y"/><g id="Z"><use transform="matrix(0.05432111111111112,0,0,0.05432111111111112,0,0)" xlink:href="#bm"/><use transform="matrix(0.05432111111111112,0,0,0.05432111111111112,9.777800000000001,0)" xlink:href="#bA"/><use transform="matrix(0.05432111111111112,0,0,0.05432111111111112,19.50127888888889,0)" xlink:href="#bv"/><use transform="matrix(0.05432111111111112,0,0,0.05432111111111112,30.365501111111115,0)" xlink:href="#bw"/><use transform="matrix(0.05432111111111112,0,0,0.05432111111111112,46.607513333333344,0)" xlink:href="#bB"/></g><g id="aa"><use transform="matrix(0.05432111111111112,0,0,0.05432111111111112,0,0)" xlink:href="#bq"/><use transform="matrix(0.05432111111111112,0,0,0.05432111111111112,4.291367777777778,0)" xlink:href="#br"/><use transform="matrix(0.05432111111111112,0,0,0.05432111111111112,15.155590000000005,0)" xlink:href="#bs"/><use transform="matrix(0.05432111111111112,0,0,0.05432111111111112,24.933390000000003,0)" xlink:href="#bt"/><use transform="matrix(0.05432111111111112,0,0,0.05432111111111112,30.365501111111115,0)" xlink:href="#bu"/><use transform="matrix(0.05432111111111112,0,0,0.05432111111111112,35.79761222222223,0)" xlink:href="#bt"/><use transform="matrix(0.05432111111111112,0,0,0.05432111111111112,41.22972333333334,0)" xlink:href="#bv"/><use transform="matrix(0.05432111111111112,0,0,0.05432111111111112,52.093945555555564,0)" xlink:href="#bw"/><use transform="matrix(0.05432111111111112,0,0,0.05432111111111112,68.3359577777778,0)" xlink:href="#bu"/><use transform="matrix(0.05432111111111112,0,0,0.05432111111111112,73.7680688888889,0)" xlink:href="#bx"/><use transform="matrix(0.05432111111111112,0,0,0.05432111111111112,84.63229111111113,0)" xlink:href="#by"/><use transform="matrix(0.05432111111111112,0,0,0.05432111111111112,95.49651333333335,0)" xlink:href="#bv"/><use transform="matrix(0.05432111111111112,0,0,0.05432111111111112,106.36073555555558,0)" xlink:href="#bz"/></g><use transform="matrix(0.05432111111111112,0,0,0.05432111111111112,0,0)" xlink:href="#bB" id="ab"/><g id="ac"><use transform="matrix(0.05432111111111112,0,0,0.05432111111111112,0,0)" xlink:href="#bm"/><use transform="matrix(0.05432111111111112,0,0,0.05432111111111112,9.777800000000001,0)" xlink:href="#bA"/><use transform="matrix(0.05432111111111112,0,0,0.05432111111111112,19.50127888888889,0)" xlink:href="#bv"/><use transform="matrix(0.05432111111111112,0,0,0.05432111111111112,30.365501111111115,0)" xlink:href="#bw"/><use transform="matrix(0.05432111111111112,0,0,0.05432111111111112,46.607513333333344,0)" xlink:href="#bB"/><use transform="matrix(0.05432111111111112,0,0,0.05432111111111112,57.47173555555556,0)" xlink:href="#bn"/><use transform="matrix(0.05432111111111112,0,0,0.05432111111111112,68.8791688888889,0)" xlink:href="#bo"/></g><path fill="#333" d="M160-131c35 5 61 23 61 61C221 17 115-2 30 0v-248c76 3 177-17 177 60 0 33-19 50-47 57zm-97-11c50-1 110 9 110-42 0-47-63-36-110-37v79zm0 115c55-2 124 14 124-45 0-56-70-42-124-44v89" id="cj"/><g id="ad"><use transform="matrix(0.06172839506172839,0,0,0.06172839506172839,0,0)" xlink:href="#cj"/><use transform="matrix(0.06172839506172839,0,0,0.06172839506172839,14.814814814814813,0)" xlink:href="#aB"/><use transform="matrix(0.06172839506172839,0,0,0.06172839506172839,30.74074074074074,0)" xlink:href="#aA"/><use transform="matrix(0.06172839506172839,0,0,0.06172839506172839,42.28395061728395,0)" xlink:href="#ar"/><use transform="matrix(0.06172839506172839,0,0,0.06172839506172839,54.1358024691358,0)" xlink:href="#bC"/></g><path fill="#333" d="M152-53C154 19 21 22 9-41l28-8c5 36 84 42 81-4-1-29-28-34-58-35v-24c28 0 55-4 55-30 0-19-14-29-34-28-20 0-35 7-38 25l-28-3c4-33 30-46 66-46 37 0 66 15 66 50 0 27-20 41-44 44 27 5 48 17 49 47" id="ck"/><use transform="matrix(0.06172839506172839,0,0,0.06172839506172839,0,0)" xlink:href="#ck" id="ae"/><g id="af"><use transform="matrix(0.05432111111111112,0,0,0.05432111111111112,0,0)" xlink:href="#bO"/><use transform="matrix(0.05432111111111112,0,0,0.05432111111111112,13.037066666666668,0)" xlink:href="#bP"/></g><g id="ag"><use transform="matrix(0.05432111111111112,0,0,0.05432111111111112,0,0)" xlink:href="#bq"/><use transform="matrix(0.05432111111111112,0,0,0.05432111111111112,4.291367777777778,0)" xlink:href="#br"/><use transform="matrix(0.05432111111111112,0,0,0.05432111111111112,15.155590000000005,0)" xlink:href="#bs"/><use transform="matrix(0.05432111111111112,0,0,0.05432111111111112,24.933390000000003,0)" xlink:href="#bt"/><use transform="matrix(0.05432111111111112,0,0,0.05432111111111112,30.365501111111115,0)" xlink:href="#bu"/><use transform="matrix(0.05432111111111112,0,0,0.05432111111111112,35.79761222222223,0)" xlink:href="#bt"/><use transform="matrix(0.05432111111111112,0,0,0.05432111111111112,41.22972333333334,0)" xlink:href="#bv"/><use transform="matrix(0.05432111111111112,0,0,0.05432111111111112,52.093945555555564,0)" xlink:href="#bw"/><use transform="matrix(0.05432111111111112,0,0,0.05432111111111112,68.3359577777778,0)" xlink:href="#bu"/><use transform="matrix(0.05432111111111112,0,0,0.05432111111111112,73.7680688888889,0)" xlink:href="#bx"/><use transform="matrix(0.05432111111111112,0,0,0.05432111111111112,84.63229111111113,0)" xlink:href="#by"/><use transform="matrix(0.05432111111111112,0,0,0.05432111111111112,95.49651333333335,0)" xlink:href="#bv"/><use transform="matrix(0.05432111111111112,0,0,0.05432111111111112,106.36073555555558,0)" xlink:href="#bz"/></g><use transform="matrix(0.05432111111111112,0,0,0.05432111111111112,0,0)" xlink:href="#bS" id="ah"/><use transform="matrix(0.05432111111111112,0,0,0.05432111111111112,0,0)" xlink:href="#bm" id="ai"/><use transform="matrix(0.05432111111111112,0,0,0.05432111111111112,0,0)" xlink:href="#bQ" id="aj"/><path d="M170-190V0h-32v-167H57V0H25v-190h145" id="cl"/><path d="M100-194c62-1 85 37 85 99 1 63-27 99-86 99S16-35 15-95c0-66 28-99 85-99zM99-20c44 1 53-31 53-75 0-43-8-75-51-75s-53 32-53 75 10 74 51 75" id="cm"/><g id="ak"><use transform="matrix(0.05432111111111112,0,0,0.05432111111111112,0,0)" xlink:href="#cl"/><use transform="matrix(0.05432111111111112,0,0,0.05432111111111112,10.538295555555557,0)" xlink:href="#cm"/></g><g id="al"><use transform="matrix(0.05432111111111112,0,0,0.05432111111111112,0,0)" xlink:href="#bO"/><use transform="matrix(0.05432111111111112,0,0,0.05432111111111112,13.037066666666668,0)" xlink:href="#bP"/></g><use transform="matrix(0.05432111111111112,0,0,0.05432111111111112,0,0)" xlink:href="#bQ" id="am"/><path fill="#333" d="M94-120c-9 3-20 7-31 7V0H30v-248h33v109c41-1 47-27 65-55l36-54h35c-23 32-58 90-81 112L208 0h-39" id="cn"/><path fill="#333" d="M57-190v167h83v-167h32v167h26v95h-29V0H25v-190h32" id="co"/><g id="an"><use transform="matrix(0.06172839506172839,0,0,0.06172839506172839,0,0)" xlink:href="#cn"/><use transform="matrix(0.06172839506172839,0,0,0.06172839506172839,12.901234567901234,0)" xlink:href="#ar"/><use transform="matrix(0.06172839506172839,0,0,0.06172839506172839,25.24691358024691,0)" xlink:href="#av"/><use transform="matrix(0.06172839506172839,0,0,0.06172839506172839,37.46913580246913,0)" xlink:href="#az"/><use transform="matrix(0.06172839506172839,0,0,0.06172839506172839,49.81481481481481,0)" xlink:href="#co"/></g></defs></g></svg>